<svg id="Layer_1" viewBox="0 0 64 64" xmlns="http://www.w3.org/2000/svg" data-name="Layer 1"><path d="m13.476 30.712a.5.5 0 0 0 -.4-.341l-3.195-.464-1.433-2.895a.519.519 0 0 0 -.9 0l-1.425 2.895-3.195.464a.5.5 0 0 0 -.277.853l2.312 2.253-.546 3.182a.5.5 0 0 0 .2.489.494.494 0 0 0 .526.038l2.857-1.502 2.858 1.5a.5.5 0 0 0 .526-.038.5.5 0 0 0 .2-.489l-.546-3.182 2.312-2.253a.5.5 0 0 0 .126-.51z"/><path d="m25.476 30.712a.5.5 0 0 0 -.4-.341l-3.195-.464-1.429-2.895a.519.519 0 0 0 -.9 0l-1.429 2.895-3.195.464a.5.5 0 0 0 -.277.853l2.312 2.253-.546 3.182a.5.5 0 0 0 .2.489.494.494 0 0 0 .526.038l2.857-1.502 2.858 1.5a.5.5 0 0 0 .526-.038.5.5 0 0 0 .2-.489l-.546-3.182 2.312-2.253a.5.5 0 0 0 .126-.51z"/><path d="m37.476 30.712a.5.5 0 0 0 -.4-.341l-3.195-.464-1.429-2.895a.519.519 0 0 0 -.9 0l-1.429 2.895-3.195.464a.5.5 0 0 0 -.277.853l2.312 2.253-.546 3.182a.5.5 0 0 0 .2.489.494.494 0 0 0 .526.038l2.857-1.502 2.857 1.5a.5.5 0 0 0 .726-.527l-.546-3.181 2.312-2.254a.5.5 0 0 0 .127-.51z"/><path d="m49.476 30.712a.5.5 0 0 0 -.4-.341l-3.195-.464-1.429-2.895a.519.519 0 0 0 -.9 0l-1.429 2.895-3.195.464a.5.5 0 0 0 -.277.853l2.312 2.254-.546 3.181a.5.5 0 0 0 .726.527l2.857-1.502 2.857 1.5a.5.5 0 0 0 .726-.527l-.546-3.181 2.312-2.254a.5.5 0 0 0 .127-.51z"/><path d="m61.476 30.712a.5.5 0 0 0 -.4-.341l-3.195-.464-1.429-2.895a.519.519 0 0 0 -.9 0l-1.429 2.895-3.195.464a.5.5 0 0 0 -.277.853l2.312 2.254-.546 3.181a.5.5 0 0 0 .726.527l2.857-1.502 2.857 1.5a.5.5 0 0 0 .726-.527l-.546-3.181 2.312-2.254a.5.5 0 0 0 .127-.51z"/></svg>